<?xml version="1.0" encoding="UTF-8" standalone="no"?>
<svg width="134px" height="25px" viewBox="0 0 134 25" version="1.1" xmlns="http://www.w3.org/2000/svg" xmlns:xlink="http://www.w3.org/1999/xlink" xmlns:sketch="http://www.bohemiancoding.com/sketch/ns">
    <!-- Generator: Sketch 3.0.3 (7892) - http://www.bohemiancoding.com/sketch -->
    <title>Artboard</title>
    <desc>Created with Sketch.</desc>
    <defs></defs>
    <g id="Page-1" stroke="none" stroke-width="1" fill="none" fill-rule="evenodd" sketch:type="MSPage">
        <g id="Artboard" sketch:type="MSArtboardGroup">
            <g id="Group" sketch:type="MSLayerGroup" fill-opacity="0.2" fill="#000000">
                <path d="M8.829,24.8603672 C5.819,24.8603672 2.583,23.2823672 1,21.7693672 L2.721,19.4353672 C4.47,20.4913672 5.986,21.6703672 8.169,21.5413672 C11.105,21.3413672 11.242,19.0073672 10.944,18.2863672 C10.12,16.2123672 4.57,13.9143672 2.389,11.2533672 C1.628,10.2963672 1.166,8.1943672 1.531,6.8113672 C1.727,5.9933672 2.619,4.4493672 3.511,3.6933672 C4.831,2.6103672 6.483,2.1453672 8.169,2.0163672 C10.878,1.8193672 14.476,3.4293672 15.765,5.3013672 C15.469,5.7303672 14.145,6.9823672 13.782,7.4393672 C12.79,6.6513672 11.075,5.7303672 9.421,5.6633672 C8.662,5.6323672 8.134,6.0263672 7.77,6.7483672 C6.781,8.7513672 10.348,10.8253672 11.635,11.5793672 C14.043,12.9933672 17.183,15.3953672 17.446,17.9913672 C17.844,22.0663672 14.246,24.8603672 8.829,24.8603672" id="Fill-52" sketch:type="MSShapeGroup"></path>
                <path d="M32.4897337,15.8660044 C32.3537337,14.6830044 32.3277337,13.6060044 31.8007337,12.5530044 C30.3717337,9.79100437 28.9697337,8.92500437 25.9847337,9.00500437 C22.0227337,9.13600437 18.6117337,13.5520044 19.0357337,17.9420044 C19.3247337,20.7850044 20.8057337,23.3650044 23.7407337,23.8640044 C26.4877337,24.3330044 30.6127337,22.5470044 31.8007337,21.1290044 C31.9597337,20.9430044 31.7737337,20.7850044 31.6137337,20.6030044 C31.3767337,20.3410044 30.9297337,19.7380044 30.7717337,19.4420044 C30.6377337,19.2090044 30.2937337,19.4750044 30.0537337,19.5260044 C30.0537337,19.5260044 27.7037337,20.3910044 26.2197337,20.3910044 C25.4837337,20.3910044 24.8237337,20.1580044 24.3767337,19.8130044 C23.9777337,19.5260044 23.6887337,18.8950044 23.6097337,18.5260044 C25.2987337,18.0750044 31.7187337,17.2090044 31.7187337,17.2090044 C32.3277337,17.1050044 32.5427337,16.4190044 32.4897337,15.8660044 M28.2317337,14.8160044 C28.2317337,14.8160044 24.4527337,15.2640044 23.7407337,15.4200044 C24.1067337,14.0290044 24.5577337,12.3720044 26.4617337,12.3940044 C27.7827337,12.3940044 28.0707337,13.7880044 28.2317337,14.8160044" id="Fill-44" sketch:type="MSShapeGroup"></path>
                <path d="M45.524,14.318 C44.494,14.422 43.065,14.71 41.662,14.818 C41.956,13.894 42.35,13.026 41.294,12.369 C40.715,12.029 38.199,12.87 38.199,16.395 C38.199,19.208 38.253,21.628 38.493,23.655 C36.985,23.443 34,23.734 34,23.734 C34.133,22.679 34.394,19.523 34.423,16.896 C34.451,13.952 34.318,10.895 34.051,9.478 C35.293,9.503 38.385,9 38.385,9 C38.385,9 38.359,10.553 38.415,11.211 C39.76,10.24 41.373,8.508 43.961,9.268 C45.02,9.58 46.023,10.924 46.023,12.213 C46.023,12.791 46.05,13.633 45.524,14.318" id="Fill-45" sketch:type="MSShapeGroup"></path>
                <path d="M58.1891601,23.2383469 C58.1381601,22.7163469 58.0091601,21.5593469 57.9791601,20.4273469 C57.9001601,18.5333469 57.9791601,17.5583469 58.1381601,15.5313469 C58.3251601,12.9603469 57.5821601,10.7973469 55.2041601,9.59334694 C53.8851601,8.90434694 52.6131601,8.90434694 50.9781601,9.14734694 C49.1511601,9.43034694 46.7201601,11.1703469 46.7201601,11.1703469 L47.6681601,12.8753469 C47.7491601,12.8263469 48.0941601,12.6653469 48.5161601,12.4843469 C49.0481601,12.2453469 49.6761601,12.0083469 50.0781601,11.9313469 C51.0031601,11.7203469 51.5311601,11.6963469 52.3231601,12.0903469 C53.4331601,12.6143469 54.0691601,14.0353469 54.0431601,14.7223469 C52.5331601,13.5603469 51.1861601,13.6403469 49.3651601,14.1893469 C48.6241601,14.4283469 47.0111601,15.4013469 45.9281601,16.8493469 C45.3461601,17.6403469 44.6351601,19.6133469 45.2161601,21.1883469 C45.7951601,22.6893469 46.7481601,23.5603469 48.3361601,23.8493469 C48.8081601,23.9773469 49.0971601,23.9993469 49.6021601,23.9193469 C50.0781601,23.8493469 50.5561601,23.6853469 51.0031601,23.4773469 C52.1931601,22.9003469 53.1171601,21.8973469 53.5381601,21.1653469 C53.5121601,21.1883469 53.5121601,23.0583469 53.5951601,23.7683469 C53.5951601,23.7683469 56.9751601,23.2953469 58.1891601,23.2383469 M53.7751601,18.2703469 C53.7011601,18.7693469 52.7181601,19.9773469 51.7191601,19.9773469 C51.3201601,19.9773469 51.0031601,20.0063469 50.7101601,19.7433469 C50.3661601,19.4523469 50.0781601,18.7693469 50.2851601,18.0843469 C50.5001601,17.4253469 51.1081601,17.0603469 51.7411601,16.9553469 C52.3771601,16.8773469 53.2481601,17.1923469 53.4871601,17.4013469 C53.7541601,17.6143469 53.8281601,17.9303469 53.7751601,18.2703469" id="Fill-46" sketch:type="MSShapeGroup"></path>
                <path d="M74.936,16.592 C74.909,13.2 73.007,9.646 69.123,9.228 C66.212,8.911 64.604,10.727 64.021,11.912 C64.18,10.436 64.337,2.628 64.282,1 C63.305,1.26 61.323,1.497 59.816,1.552 C60.052,3.997 59.899,12.539 59.948,15.409 C60.006,19.277 59.579,21.406 59,23.744 C60.504,23.774 63.335,23.799 63.968,23.774 L63.941,21.324 C64.257,21.981 65.738,23.3 66.904,23.666 C69.096,24.378 71.051,24.269 72.692,22.615 C74.251,21.007 74.962,18.721 74.936,16.592 M70.205,18.408 C69.703,19.194 69.096,19.749 68.33,19.854 C66.162,20.168 64.734,18.536 64.18,17.961 C64.151,17.354 64.125,16.433 64.151,15.752 C64.314,15.489 65.659,12.806 68.618,13.542 C70.262,13.933 71.261,16.723 70.205,18.408" id="Fill-47" sketch:type="MSShapeGroup"></path>
                <path d="M89.4883503,15.8660044 C89.3543503,14.6830044 89.3283503,13.6060044 88.8003503,12.5530044 C87.3713503,9.79100437 85.9713503,8.92500437 82.9833503,9.00500437 C79.0223503,9.13600437 75.6083503,13.5520044 76.0363503,17.9420044 C76.3233503,20.7850044 77.8063503,23.3650044 80.7383503,23.8640044 C83.4873503,24.3330044 87.6093503,22.5470044 88.8003503,21.1290044 C88.9573503,20.9430044 88.7723503,20.7850044 88.6173503,20.6030044 C88.3783503,20.3410044 87.9263503,19.7380044 87.7713503,19.4420044 C87.6383503,19.2090044 87.2923503,19.4750044 87.0563503,19.5260044 C87.0563503,19.5260044 84.7023503,20.3910044 83.2203503,20.3910044 C82.4793503,20.3910044 81.8223503,20.1580044 81.3723503,19.8130044 C80.9753503,19.5260044 80.6873503,18.8950044 80.6033503,18.5260044 C82.3003503,18.0750044 88.7223503,17.2090044 88.7223503,17.2090044 C89.3283503,17.1050044 89.5403503,16.4190044 89.4883503,15.8660044 M85.2303503,14.8160044 C85.2303503,14.8160044 81.4493503,15.2640044 80.7383503,15.4200044 C81.1053503,14.0290044 81.5573503,12.3720044 83.4593503,12.3940044 C84.7803503,12.3940044 85.0703503,13.7880044 85.2303503,14.8160044" id="Fill-48" sketch:type="MSShapeGroup"></path>
                <path d="M103.489413,15.8660044 C103.360413,14.6830044 103.329413,13.6060044 102.805413,12.5530044 C101.375413,9.79100437 99.9764132,8.92500437 96.9874132,9.00500437 C93.0244132,9.13600437 89.6134132,13.5520044 90.0354132,17.9420044 C90.3284132,20.7850044 91.8084132,23.3650044 94.7394132,23.8640044 C97.4924132,24.3330044 101.613413,22.5470044 102.805413,21.1290044 C102.962413,20.9430044 102.777413,20.7850044 102.614413,20.6030044 C102.378413,20.3410044 101.930413,19.7380044 101.773413,19.4420044 C101.642413,19.2090044 101.296413,19.4750044 101.057413,19.5260044 C101.057413,19.5260044 98.7074132,20.3910044 97.2234132,20.3910044 C96.4864132,20.3910044 95.8264132,20.1580044 95.3774132,19.8130044 C94.9774132,19.5260044 94.6894132,18.8950044 94.6104132,18.5260044 C96.3014132,18.0750044 102.725413,17.2090044 102.725413,17.2090044 C103.329413,17.1050044 103.544413,16.4190044 103.489413,15.8660044 M99.2364132,14.8160044 C99.2364132,14.8160044 95.4554132,15.2640044 94.7394132,15.4200044 C95.1104132,14.0290044 95.5634132,12.3720044 97.4654132,12.3940044 C98.7874132,12.3940044 99.0754132,13.7880044 99.2364132,14.8160044" id="Fill-49" sketch:type="MSShapeGroup"></path>
                <path d="M118.43,23.515 C117.607,23.568 114.994,23.595 114.279,23.861 C114.359,22.07 114.467,19.098 114.384,17.021 C114.333,15.626 114.016,14.155 113.488,13.497 C111.951,11.603 110.075,13.811 109.654,15.442 C109.55,17.885 109.419,23.751 109.419,23.751 C108.782,23.78 106.509,23.675 105,23.647 C105.348,21.308 105.451,19.176 105.398,15.312 C105.348,12.443 105.348,11.997 105.106,9.548 C106.617,9.471 108.488,9.418 109.468,9 C109.523,10.077 109.575,10.836 109.523,11.89 C110.236,10.421 111.688,9.051 113.749,9.155 C116.686,9.313 118.43,11.997 118.722,15.835 C118.882,18.072 118.587,21.781 118.43,23.515" id="Fill-50" sketch:type="MSShapeGroup"></path>
                <path d="M133.194212,23.2383469 C133.142212,22.7163469 133.010212,21.5593469 132.985212,20.4273469 C132.905212,18.5333469 132.985212,17.5583469 133.142212,15.5313469 C133.327212,12.9603469 132.588212,10.7973469 130.209212,9.59334694 C128.882212,8.90434694 127.618212,8.90434694 125.979212,9.14734694 C124.156212,9.43034694 121.722212,11.1703469 121.722212,11.1703469 L122.675212,12.8753469 C122.756212,12.8263469 123.100212,12.6653469 123.520212,12.4843469 C124.049212,12.2453469 124.682212,12.0083469 125.081212,11.9313469 C126.005212,11.7203469 126.533212,11.6963469 127.323212,12.0903469 C128.437212,12.6143469 129.069212,14.0353469 129.042212,14.7223469 C127.538212,13.5603469 126.190212,13.6403469 124.366212,14.1893469 C123.625212,14.4283469 122.017212,15.4013469 120.929212,16.8493469 C120.348212,17.6403469 119.636212,19.6133469 120.214212,21.1883469 C120.798212,22.6893469 121.748212,23.5603469 123.337212,23.8493469 C123.812212,23.9773469 124.103212,23.9993469 124.607212,23.9193469 C125.081212,23.8493469 125.553212,23.6853469 126.005212,23.4773469 C127.195212,22.9003469 128.122212,21.8973469 128.544212,21.1653469 C128.518212,21.1883469 128.518212,23.0583469 128.596212,23.7683469 C128.596212,23.7683469 131.980212,23.2953469 133.194212,23.2383469 M128.780212,18.2703469 C128.702212,18.7693469 127.724212,19.9773469 126.719212,19.9773469 C126.323212,19.9773469 126.005212,20.0063469 125.715212,19.7433469 C125.374212,19.4523469 125.081212,18.7693469 125.293212,18.0843469 C125.502212,17.4253469 126.110212,17.0603469 126.747212,16.9553469 C127.379212,16.8773469 128.254212,17.1923469 128.490212,17.4013469 C128.753212,17.6143469 128.832212,17.9303469 128.780212,18.2703469" id="Fill-51" sketch:type="MSShapeGroup"></path>
            </g>
            <g id="Group" sketch:type="MSLayerGroup" fill="#FFFFFF">
                <path d="M7.829,23.8603672 C4.819,23.8603672 1.583,22.2823672 0,20.7693672 L1.721,18.4353672 C3.47,19.4913672 4.986,20.6703672 7.169,20.5413672 C10.105,20.3413672 10.242,18.0073672 9.944,17.2863672 C9.12,15.2123672 3.57,12.9143672 1.389,10.2533672 C0.628,9.2963672 0.166,7.1943672 0.531,5.8113672 C0.727,4.9933672 1.619,3.4493672 2.511,2.6933672 C3.831,1.6103672 5.483,1.1453672 7.169,1.0163672 C9.878,0.819367197 13.476,2.4293672 14.765,4.3013672 C14.469,4.7303672 13.145,5.9823672 12.782,6.4393672 C11.79,5.6513672 10.075,4.7303672 8.421,4.6633672 C7.662,4.6323672 7.134,5.0263672 6.77,5.7483672 C5.781,7.7513672 9.348,9.8253672 10.635,10.5793672 C13.043,11.9933672 16.183,14.3953672 16.446,16.9913672 C16.844,21.0663672 13.246,23.8603672 7.829,23.8603672" id="Fill-35" sketch:type="MSShapeGroup"></path>
                <path d="M31.4897337,14.8660044 C31.3537337,13.6830044 31.3277337,12.6060044 30.8007337,11.5530044 C29.3717337,8.79100437 27.9697337,7.92500437 24.9847337,8.00500437 C21.0227337,8.13600437 17.6117337,12.5520044 18.0357337,16.9420044 C18.3247337,19.7850044 19.8057337,22.3650044 22.7407337,22.8640044 C25.4877337,23.3330044 29.6127337,21.5470044 30.8007337,20.1290044 C30.9597337,19.9430044 30.7737337,19.7850044 30.6137337,19.6030044 C30.3767337,19.3410044 29.9297337,18.7380044 29.7717337,18.4420044 C29.6377337,18.2090044 29.2937337,18.4750044 29.0537337,18.5260044 C29.0537337,18.5260044 26.7037337,19.3910044 25.2197337,19.3910044 C24.4837337,19.3910044 23.8237337,19.1580044 23.3767337,18.8130044 C22.9777337,18.5260044 22.6887337,17.8950044 22.6097337,17.5260044 C24.2987337,17.0750044 30.7187337,16.2090044 30.7187337,16.2090044 C31.3277337,16.1050044 31.5427337,15.4190044 31.4897337,14.8660044 M27.2317337,13.8160044 C27.2317337,13.8160044 23.4527337,14.2640044 22.7407337,14.4200044 C23.1067337,13.0290044 23.5577337,11.3720044 25.4617337,11.3940044 C26.7827337,11.3940044 27.0707337,12.7880044 27.2317337,13.8160044" id="Fill-36" sketch:type="MSShapeGroup"></path>
                <path d="M44.524,13.318 C43.494,13.422 42.065,13.71 40.662,13.818 C40.956,12.894 41.35,12.026 40.294,11.369 C39.715,11.029 37.199,11.87 37.199,15.395 C37.199,18.208 37.253,20.628 37.493,22.655 C35.985,22.443 33,22.734 33,22.734 C33.133,21.679 33.394,18.523 33.423,15.896 C33.451,12.952 33.318,9.895 33.051,8.478 C34.293,8.503 37.385,8 37.385,8 C37.385,8 37.359,9.553 37.415,10.211 C38.76,9.24 40.373,7.508 42.961,8.268 C44.02,8.58 45.023,9.924 45.023,11.213 C45.023,11.791 45.05,12.633 44.524,13.318" id="Fill-37" sketch:type="MSShapeGroup"></path>
                <path d="M57.1891601,22.2383469 C57.1381601,21.7163469 57.0091601,20.5593469 56.9791601,19.4273469 C56.9001601,17.5333469 56.9791601,16.5583469 57.1381601,14.5313469 C57.3251601,11.9603469 56.5821601,9.79734694 54.2041601,8.59334694 C52.8851601,7.90434694 51.6131601,7.90434694 49.9781601,8.14734694 C48.1511601,8.43034694 45.7201601,10.1703469 45.7201601,10.1703469 L46.6681601,11.8753469 C46.7491601,11.8263469 47.0941601,11.6653469 47.5161601,11.4843469 C48.0481601,11.2453469 48.6761601,11.0083469 49.0781601,10.9313469 C50.0031601,10.7203469 50.5311601,10.6963469 51.3231601,11.0903469 C52.4331601,11.6143469 53.0691601,13.0353469 53.0431601,13.7223469 C51.5331601,12.5603469 50.1861601,12.6403469 48.3651601,13.1893469 C47.6241601,13.4283469 46.0111601,14.4013469 44.9281601,15.8493469 C44.3461601,16.6403469 43.6351601,18.6133469 44.2161601,20.1883469 C44.7951601,21.6893469 45.7481601,22.5603469 47.3361601,22.8493469 C47.8081601,22.9773469 48.0971601,22.9993469 48.6021601,22.9193469 C49.0781601,22.8493469 49.5561601,22.6853469 50.0031601,22.4773469 C51.1931601,21.9003469 52.1171601,20.8973469 52.5381601,20.1653469 C52.5121601,20.1883469 52.5121601,22.0583469 52.5951601,22.7683469 C52.5951601,22.7683469 55.9751601,22.2953469 57.1891601,22.2383469 M52.7751601,17.2703469 C52.7011601,17.7693469 51.7181601,18.9773469 50.7191601,18.9773469 C50.3201601,18.9773469 50.0031601,19.0063469 49.7101601,18.7433469 C49.3661601,18.4523469 49.0781601,17.7693469 49.2851601,17.0843469 C49.5001601,16.4253469 50.1081601,16.0603469 50.7411601,15.9553469 C51.3771601,15.8773469 52.2481601,16.1923469 52.4871601,16.4013469 C52.7541601,16.6143469 52.8281601,16.9303469 52.7751601,17.2703469" id="Fill-38" sketch:type="MSShapeGroup"></path>
                <path d="M73.936,15.592 C73.909,12.2 72.007,8.646 68.123,8.228 C65.212,7.911 63.604,9.727 63.021,10.912 C63.18,9.436 63.337,1.628 63.282,0 C62.305,0.26 60.323,0.497 58.816,0.552 C59.052,2.997 58.899,11.539 58.948,14.409 C59.006,18.277 58.579,20.406 58,22.744 C59.504,22.774 62.335,22.799 62.968,22.774 L62.941,20.324 C63.257,20.981 64.738,22.3 65.904,22.666 C68.096,23.378 70.051,23.269 71.692,21.615 C73.251,20.007 73.962,17.721 73.936,15.592 M69.205,17.408 C68.703,18.194 68.096,18.749 67.33,18.854 C65.162,19.168 63.734,17.536 63.18,16.961 C63.151,16.354 63.125,15.433 63.151,14.752 C63.314,14.489 64.659,11.806 67.618,12.542 C69.262,12.933 70.261,15.723 69.205,17.408" id="Fill-39" sketch:type="MSShapeGroup"></path>
                <path d="M88.4883503,14.8660044 C88.3543503,13.6830044 88.3283503,12.6060044 87.8003503,11.5530044 C86.3713503,8.79100437 84.9713503,7.92500437 81.9833503,8.00500437 C78.0223503,8.13600437 74.6083503,12.5520044 75.0363503,16.9420044 C75.3233503,19.7850044 76.8063503,22.3650044 79.7383503,22.8640044 C82.4873503,23.3330044 86.6093503,21.5470044 87.8003503,20.1290044 C87.9573503,19.9430044 87.7723503,19.7850044 87.6173503,19.6030044 C87.3783503,19.3410044 86.9263503,18.7380044 86.7713503,18.4420044 C86.6383503,18.2090044 86.2923503,18.4750044 86.0563503,18.5260044 C86.0563503,18.5260044 83.7023503,19.3910044 82.2203503,19.3910044 C81.4793503,19.3910044 80.8223503,19.1580044 80.3723503,18.8130044 C79.9753503,18.5260044 79.6873503,17.8950044 79.6033503,17.5260044 C81.3003503,17.0750044 87.7223503,16.2090044 87.7223503,16.2090044 C88.3283503,16.1050044 88.5403503,15.4190044 88.4883503,14.8660044 M84.2303503,13.8160044 C84.2303503,13.8160044 80.4493503,14.2640044 79.7383503,14.4200044 C80.1053503,13.0290044 80.5573503,11.3720044 82.4593503,11.3940044 C83.7803503,11.3940044 84.0703503,12.7880044 84.2303503,13.8160044" id="Fill-40" sketch:type="MSShapeGroup"></path>
                <path d="M102.489413,14.8660044 C102.360413,13.6830044 102.329413,12.6060044 101.805413,11.5530044 C100.375413,8.79100437 98.9764132,7.92500437 95.9874132,8.00500437 C92.0244132,8.13600437 88.6134132,12.5520044 89.0354132,16.9420044 C89.3284132,19.7850044 90.8084132,22.3650044 93.7394132,22.8640044 C96.4924132,23.3330044 100.613413,21.5470044 101.805413,20.1290044 C101.962413,19.9430044 101.777413,19.7850044 101.614413,19.6030044 C101.378413,19.3410044 100.930413,18.7380044 100.773413,18.4420044 C100.642413,18.2090044 100.296413,18.4750044 100.057413,18.5260044 C100.057413,18.5260044 97.7074132,19.3910044 96.2234132,19.3910044 C95.4864132,19.3910044 94.8264132,19.1580044 94.3774132,18.8130044 C93.9774132,18.5260044 93.6894132,17.8950044 93.6104132,17.5260044 C95.3014132,17.0750044 101.725413,16.2090044 101.725413,16.2090044 C102.329413,16.1050044 102.544413,15.4190044 102.489413,14.8660044 M98.2364132,13.8160044 C98.2364132,13.8160044 94.4554132,14.2640044 93.7394132,14.4200044 C94.1104132,13.0290044 94.5634132,11.3720044 96.4654132,11.3940044 C97.7874132,11.3940044 98.0754132,12.7880044 98.2364132,13.8160044" id="Fill-41" sketch:type="MSShapeGroup"></path>
                <path d="M117.43,22.515 C116.607,22.568 113.994,22.595 113.279,22.861 C113.359,21.07 113.467,18.098 113.384,16.021 C113.333,14.626 113.016,13.155 112.488,12.497 C110.951,10.603 109.075,12.811 108.654,14.442 C108.55,16.885 108.419,22.751 108.419,22.751 C107.782,22.78 105.509,22.675 104,22.647 C104.348,20.308 104.451,18.176 104.398,14.312 C104.348,11.443 104.348,10.997 104.106,8.548 C105.617,8.471 107.488,8.418 108.468,8 C108.523,9.077 108.575,9.836 108.523,10.89 C109.236,9.421 110.688,8.051 112.749,8.155 C115.686,8.313 117.43,10.997 117.722,14.835 C117.882,17.072 117.587,20.781 117.43,22.515" id="Fill-42" sketch:type="MSShapeGroup"></path>
                <path d="M132.194212,22.2383469 C132.142212,21.7163469 132.010212,20.5593469 131.985212,19.4273469 C131.905212,17.5333469 131.985212,16.5583469 132.142212,14.5313469 C132.327212,11.9603469 131.588212,9.79734694 129.209212,8.59334694 C127.882212,7.90434694 126.618212,7.90434694 124.979212,8.14734694 C123.156212,8.43034694 120.722212,10.1703469 120.722212,10.1703469 L121.675212,11.8753469 C121.756212,11.8263469 122.100212,11.6653469 122.520212,11.4843469 C123.049212,11.2453469 123.682212,11.0083469 124.081212,10.9313469 C125.005212,10.7203469 125.533212,10.6963469 126.323212,11.0903469 C127.437212,11.6143469 128.069212,13.0353469 128.042212,13.7223469 C126.538212,12.5603469 125.190212,12.6403469 123.366212,13.1893469 C122.625212,13.4283469 121.017212,14.4013469 119.929212,15.8493469 C119.348212,16.6403469 118.636212,18.6133469 119.214212,20.1883469 C119.798212,21.6893469 120.748212,22.5603469 122.337212,22.8493469 C122.812212,22.9773469 123.103212,22.9993469 123.607212,22.9193469 C124.081212,22.8493469 124.553212,22.6853469 125.005212,22.4773469 C126.195212,21.9003469 127.122212,20.8973469 127.544212,20.1653469 C127.518212,20.1883469 127.518212,22.0583469 127.596212,22.7683469 C127.596212,22.7683469 130.980212,22.2953469 132.194212,22.2383469 M127.780212,17.2703469 C127.702212,17.7693469 126.724212,18.9773469 125.719212,18.9773469 C125.323212,18.9773469 125.005212,19.0063469 124.715212,18.7433469 C124.374212,18.4523469 124.081212,17.7693469 124.293212,17.0843469 C124.502212,16.4253469 125.110212,16.0603469 125.747212,15.9553469 C126.379212,15.8773469 127.254212,16.1923469 127.490212,16.4013469 C127.753212,16.6143469 127.832212,16.9303469 127.780212,17.2703469" id="Fill-43" sketch:type="MSShapeGroup"></path>
            </g>
        </g>
    </g>
</svg>